<svg width="24" height="24" viewBox="0 0 24 24" fill="none" xmlns="http://www.w3.org/2000/svg">
<circle cx="12" cy="12" r="11" fill="white"/>
<path d="M23.64 14.9009C22.0376 21.3351 15.5236 25.2411 9.0975 23.6399C2.66984 22.0499 -1.24543 15.5219 0.359986 9.10416C1.95865 2.67141 8.47634 -1.24284 14.8988 0.358409C21.3301 1.96416 25.2454 8.47266 23.64 14.9054V14.9009ZM17.2904 10.2884C17.5281 8.69841 16.3128 7.83966 14.6489 7.26141L15.189 5.10816L13.8717 4.77591L13.3489 6.88566C13.0045 6.79566 12.6459 6.71766 12.2858 6.63591L12.8102 4.50666L11.4891 4.17891L10.9497 6.34266L10.1095 6.14391L8.29705 5.69016L7.94521 7.10091C7.94521 7.10091 8.92271 7.32291 8.8987 7.33491C9.43509 7.47216 9.53187 7.81866 9.51686 8.10066L8.03973 14.0219C7.96546 14.1869 7.79742 14.4291 7.42682 14.3346C7.43882 14.3534 6.46582 14.0969 6.46582 14.0969L5.80565 15.6036L7.51684 16.0296L8.44634 16.2719L7.90319 18.4641L9.22429 18.7881L9.76743 16.6199C10.1267 16.7219 10.4703 16.8111 10.8139 16.8936L10.3068 19.0454L11.6271 19.3776L12.1703 17.1869C14.4126 17.6121 16.1013 17.4441 16.8125 15.4131C17.3826 13.7759 16.7802 12.8354 15.5971 12.2181C16.4487 12.0224 17.0975 11.4561 17.2769 10.2884H17.2904ZM14.2776 14.5109C13.8755 16.1511 11.1208 15.2609 10.2265 15.0381L10.9489 12.1401C11.844 12.3704 14.7037 12.8114 14.2776 14.5109ZM14.6887 10.2689C14.3166 11.7606 12.027 11.0069 11.2805 10.8186L11.9377 8.17866C12.6797 8.35791 15.0743 8.70141 14.6887 10.2644V10.2689Z" fill="#0066FF"/>
</svg>
