<svg width="24" height="24" viewBox="0 0 24 24" fill="none" xmlns="http://www.w3.org/2000/svg">
<path d="M23.6339 14.9009C22.0319 21.3351 15.5196 25.2411 9.09514 23.6399C2.66914 22.0499 -1.24511 15.5219 0.359893 9.10416C1.95814 2.67141 8.47414 -1.24284 14.8949 0.358409C21.3246 1.96416 25.2389 8.47266 23.6339 14.9054V14.9009ZM17.2859 10.2884C17.5236 8.69841 16.3086 7.83966 14.6451 7.26141L15.1851 5.10816L13.8681 4.77591L13.3454 6.88566C13.0011 6.79566 12.6426 6.71766 12.2826 6.63591L12.8069 4.50666L11.4861 4.17891L10.9469 6.34266L10.1069 6.14391L8.29489 5.69016L7.94314 7.10091C7.94314 7.10091 8.92039 7.32291 8.89639 7.33491C9.43264 7.47216 9.52939 7.81866 9.51439 8.10066L8.03764 14.0219C7.96339 14.1869 7.79539 14.4291 7.42489 14.3346C7.43689 14.3534 6.46414 14.0969 6.46414 14.0969L5.80414 15.6036L7.51489 16.0296L8.44414 16.2719L7.90114 18.4641L9.22189 18.7881L9.76489 16.6199C10.1241 16.7219 10.4676 16.8111 10.8111 16.8936L10.3041 19.0454L11.6241 19.3776L12.1671 17.1869C14.4089 17.6121 16.0971 17.4441 16.8081 15.4131C17.3781 13.7759 16.7759 12.8354 15.5931 12.2181C16.4444 12.0224 17.0931 11.4561 17.2724 10.2884H17.2859ZM14.2739 14.5109C13.8719 16.1511 11.1179 15.2609 10.2239 15.0381L10.9461 12.1401C11.8409 12.3704 14.6999 12.8114 14.2739 14.5109ZM14.6849 10.2689C14.3129 11.7606 12.0239 11.0069 11.2776 10.8186L11.9346 8.17866C12.6764 8.35791 15.0704 8.70141 14.6849 10.2644V10.2689Z" fill="#0066FF"/>
</svg>
