<svg width="30" height="30" viewBox="0 0 30 30" fill="none" xmlns="http://www.w3.org/2000/svg">
<g>
<path d="M7.09132 13.1609H6.68432V12.0175C6.68432 11.7748 6.48756 11.578 6.24486 11.578C6.00216 11.578 5.8054 11.7748 5.8054 12.0175V13.1609H5.39812C4.83555 13.1609 4.37793 13.6186 4.37793 14.1811V20.905C4.37793 21.4676 4.83561 21.9252 5.39812 21.9252H5.8054V23.0687C5.8054 23.3114 6.00216 23.5082 6.24486 23.5082C6.48756 23.5082 6.68432 23.3114 6.68432 23.0687V21.9252H7.09132C7.65388 21.9252 8.1115 21.4676 8.1115 20.905V19.0541C8.1115 18.8114 7.91474 18.6146 7.67204 18.6146C7.42935 18.6146 7.23259 18.8114 7.23259 19.0541V20.905C7.23259 20.983 7.16919 21.0463 7.09132 21.0463H5.39812C5.32018 21.0463 5.25684 20.9829 5.25684 20.905V14.1811C5.25684 14.1032 5.32024 14.0398 5.39812 14.0398H7.09132C7.16925 14.0398 7.23259 14.1032 7.23259 14.1811V17.0008C7.23259 17.2435 7.42935 17.4403 7.67204 17.4403C7.91474 17.4403 8.1115 17.2435 8.1115 17.0008V14.1811C8.1115 13.6186 7.65382 13.1609 7.09132 13.1609V13.1609Z" fill="white"/>
<path d="M11.469 10.4311H11.062V8.41651C11.062 8.17381 10.8652 7.97705 10.6225 7.97705C10.3798 7.97705 10.1831 8.17381 10.1831 8.41651V10.431H9.7758C9.2133 10.431 8.75562 10.8887 8.75562 11.4512V18.1752C8.75562 18.7377 9.2133 19.1953 9.7758 19.1953H10.1831V19.4677C10.1831 19.7104 10.3798 19.9071 10.6225 19.9071C10.8652 19.9071 11.062 19.7104 11.062 19.4677V19.1953H11.469C12.0316 19.1953 12.4892 18.7377 12.4892 18.1752V11.4513C12.4892 10.8887 12.0315 10.4311 11.469 10.4311ZM11.6103 18.1752C11.6103 18.2531 11.5469 18.3165 11.469 18.3165H9.7758C9.69793 18.3165 9.63453 18.2531 9.63453 18.1752V11.4513C9.63453 11.3734 9.69793 11.31 9.7758 11.31H11.469C11.5469 11.31 11.6103 11.3734 11.6103 11.4513V18.1752Z" fill="white"/>
<path d="M2.71339 11.7091H2.30639V10.5657C2.30639 10.323 2.10963 10.1262 1.86693 10.1262C1.62423 10.1262 1.42747 10.323 1.42747 10.5657V11.7091H1.02019C0.45768 11.7091 0 12.1668 0 12.7293V13.9363C0 14.4989 0.45768 14.9565 1.02019 14.9565H1.42747V24.5206C1.42747 24.7633 1.62423 24.96 1.86693 24.96C2.10963 24.96 2.30639 24.7633 2.30639 24.5206V14.9565H2.71339C3.27595 14.9565 3.73357 14.4988 3.73357 13.9363V12.7293C3.73357 12.1668 3.27595 11.7091 2.71339 11.7091ZM2.85466 13.9363C2.85466 14.0142 2.79126 14.0776 2.71339 14.0776H1.02019C0.942255 14.0776 0.878915 14.0142 0.878915 13.9363V12.7293C0.878915 12.6513 0.942314 12.588 1.02019 12.588H2.71339C2.79132 12.588 2.85466 12.6514 2.85466 12.7293V13.9363Z" fill="white"/>
<path d="M15.8467 14.0891H15.4397V13.5264C15.4397 13.2837 15.2429 13.0869 15.0002 13.0869C14.7575 13.0869 14.5608 13.2837 14.5608 13.5264V14.0891H14.1535C13.5909 14.0891 13.1333 14.5468 13.1333 15.1093V18.9296C13.1333 19.4922 13.591 19.9498 14.1535 19.9498H14.5608V21.674C14.5608 21.9167 14.7575 22.1135 15.0002 22.1135C15.2429 22.1135 15.4397 21.9167 15.4397 21.674V19.9498H15.8467C16.4093 19.9498 16.8669 19.4922 16.8669 18.9296V15.1093C16.8669 14.5468 16.4092 14.0891 15.8467 14.0891ZM15.988 18.9296C15.988 19.0075 15.9246 19.0709 15.8467 19.0709H14.1535C14.0756 19.0709 14.0122 19.0075 14.0122 18.9296V15.1093C14.0122 15.0314 14.0756 14.968 14.1535 14.968H15.8467C15.9246 14.968 15.988 15.0314 15.988 15.1093V18.9296Z" fill="white"/>
<path d="M20.2244 16.1205H18.5312C17.9686 16.1205 17.511 16.5782 17.511 17.1407V21.5417C17.511 22.1043 17.9687 22.5619 18.5312 22.5619H18.9385V27.611C18.9385 27.8537 19.1352 28.0505 19.3779 28.0505C19.6206 28.0505 19.8174 27.8537 19.8174 27.611V22.5619H20.2244C20.7869 22.5619 21.2446 22.1042 21.2446 21.5417V17.1407C21.2445 16.5782 20.7869 16.1205 20.2244 16.1205V16.1205ZM20.3656 21.5417C20.3656 21.6197 20.3022 21.683 20.2243 21.683H18.5311C18.4532 21.683 18.3898 21.6196 18.3898 21.5417V17.1407C18.3898 17.0628 18.4532 16.9995 18.5311 16.9995H20.2243C20.3022 16.9995 20.3656 17.0629 20.3656 17.1407V21.5417Z" fill="white"/>
<path d="M25.6222 15.6785V12.4389C25.6222 11.8764 25.1646 11.4187 24.6021 11.4187H24.1951V10.2753C24.1951 10.0326 23.9983 9.83582 23.7556 9.83582C23.5129 9.83582 23.3161 10.0326 23.3161 10.2753V11.4187H22.9089C22.3463 11.4187 21.8887 11.8764 21.8887 12.4389V15.6785C21.8887 16.2411 22.3464 16.6987 22.9089 16.6987H23.3161V21.3265C23.3161 21.5692 23.5129 21.766 23.7556 21.766C23.9983 21.766 24.1951 21.5692 24.1951 21.3265V16.6987H24.6021C25.1646 16.6987 25.6222 16.2411 25.6222 15.6785ZM22.7676 15.6785V12.4389C22.7676 12.361 22.831 12.2977 22.9089 12.2977H24.6021C24.68 12.2977 24.7433 12.3611 24.7433 12.4389V15.6785C24.7433 15.7564 24.6799 15.8198 24.6021 15.8198H22.9089C22.831 15.8198 22.7676 15.7564 22.7676 15.6785Z" fill="white"/>
<path d="M28.9797 10.2574H28.5727V9.1139C28.5727 8.8712 28.376 8.67444 28.1333 8.67444C27.8906 8.67444 27.6938 8.8712 27.6938 9.1139V10.2574H27.2865C26.724 10.2574 26.2664 10.715 26.2664 11.2775V14.9199C26.2664 15.1626 26.4631 15.3593 26.7058 15.3593C26.9485 15.3593 27.1453 15.1626 27.1453 14.9199V11.2775C27.1453 11.1997 27.2087 11.1363 27.2865 11.1363H28.9797C29.0577 11.1363 29.121 11.1997 29.121 11.2775V19.163C29.121 19.2409 29.0576 19.3043 28.9797 19.3043H27.2865C27.2086 19.3043 27.1453 19.2409 27.1453 19.163V16.973C27.1453 16.7303 26.9485 16.5336 26.7058 16.5336C26.4631 16.5336 26.2664 16.7303 26.2664 16.973V19.1629C26.2664 19.7255 26.724 20.1831 27.2865 20.1831H27.6938V23.0688C27.6938 23.3115 27.8906 23.5082 28.1333 23.5082C28.376 23.5082 28.5727 23.3115 28.5727 23.0688V20.1831H28.9797C29.5423 20.1831 29.9999 19.7254 29.9999 19.1629V11.2775C29.9999 10.715 29.5423 10.2574 28.9797 10.2574Z" fill="white"/>
<path d="M13.2059 10.4667C13.2059 10.7094 13.4027 10.9061 13.6454 10.9061C13.8881 10.9061 14.0848 10.7094 14.0848 10.4667V10.2922H14.2593C14.502 10.2922 14.6987 10.0955 14.6987 9.85278C14.6987 9.61008 14.502 9.41333 14.2593 9.41333H14.0848V9.23889C14.0848 8.9962 13.8881 8.79944 13.6454 8.79944C13.4027 8.79944 13.2059 8.9962 13.2059 9.23889V9.41333H13.0315C12.7888 9.41333 12.592 9.61008 12.592 9.85278C12.592 10.0955 12.7888 10.2922 13.0315 10.2922H13.2059V10.4667Z" fill="white"/>
<path d="M26.4106 22.2599H26.2362V22.0854C26.2362 21.8428 26.0394 21.646 25.7967 21.646C25.5541 21.646 25.3573 21.8428 25.3573 22.0854V22.2599H25.1829C24.9402 22.2599 24.7434 22.4566 24.7434 22.6993C24.7434 22.942 24.9402 23.1388 25.1829 23.1388H25.3573V23.3132C25.3573 23.5559 25.5541 23.7527 25.7967 23.7527C26.0394 23.7527 26.2362 23.5559 26.2362 23.3132V23.1388H26.4106C26.6533 23.1388 26.8501 22.942 26.8501 22.6993C26.8501 22.4566 26.6533 22.2599 26.4106 22.2599Z" fill="white"/>
<path d="M19.3777 10.7386C21.8008 10.7386 23.7722 8.76721 23.7722 6.34404C23.7722 3.92087 21.8008 1.94946 19.3777 1.94946C18.6099 1.94946 17.8529 2.15167 17.1886 2.53418C16.9782 2.65529 16.9059 2.92395 17.0271 3.1343C17.1481 3.34465 17.4168 3.41702 17.6272 3.29584C18.1583 2.99004 18.7637 2.82838 19.3778 2.82838C21.3163 2.82838 22.8933 4.4055 22.8933 6.34404C22.8933 8.28257 21.3163 9.8597 19.3778 9.8597C17.4393 9.8597 15.8623 8.28257 15.8623 6.34404C15.8623 5.72657 16.0255 5.11842 16.3344 4.58515C16.456 4.37515 16.3844 4.10626 16.1744 3.98462C15.9644 3.86304 15.6956 3.93458 15.5739 4.14458C15.1876 4.81144 14.9834 5.572 14.9834 6.34398C14.9833 8.7672 16.9546 10.7386 19.3777 10.7386V10.7386Z" fill="white"/>
<path d="M18.0747 7.93202C18.0747 8.13293 18.2097 8.30198 18.3938 8.35436V8.53858C18.3938 8.78127 18.5906 8.97803 18.8333 8.97803C19.076 8.97803 19.2727 8.78127 19.2727 8.53858V8.37141H19.7164V8.53858C19.7164 8.78127 19.9132 8.97803 20.1559 8.97803C20.3986 8.97803 20.5954 8.78127 20.5954 8.53858V8.10663C20.8822 7.88069 21.0673 7.53118 21.0673 7.1386C21.0673 6.83649 20.9576 6.55981 20.7766 6.34518C20.9576 6.13055 21.0673 5.85387 21.0673 5.55176C21.0673 5.15918 20.8822 4.80967 20.5954 4.58374V4.15002C20.5954 3.90733 20.3986 3.71057 20.1559 3.71057C19.9132 3.71057 19.7164 3.90733 19.7164 4.15002V4.31895H19.2727V4.15002C19.2727 3.90733 19.076 3.71057 18.8333 3.71057C18.5906 3.71057 18.3938 3.90733 18.3938 4.15002V4.336C18.2097 4.38838 18.0747 4.55743 18.0747 4.75834V7.93202ZM20.1884 5.55176C20.1884 5.74694 20.0296 5.90573 19.8344 5.90573H18.9536V5.1978H19.8344C20.0296 5.1978 20.1884 5.35659 20.1884 5.55176ZM20.1884 7.1386C20.1884 7.33377 20.0296 7.49256 19.8344 7.49256H18.9536V6.78463H19.8344C20.0296 6.78463 20.1884 6.94342 20.1884 7.1386Z" fill="white"/>
</g>
</svg>
