<svg width="24" height="24" viewBox="0 0 24 24" fill="none" xmlns="http://www.w3.org/2000/svg">
<g clip-path="url(#clip0_1726_607)">
<path d="M24 12C24 5.37258 18.6274 0 12 0C5.37258 0 0 5.37258 0 12C0 18.6274 5.37258 24 12 24C18.6274 24 24 18.6274 24 12Z" fill="#0066FF"/>
<path d="M11.9973 3L11.877 3.40873V15.2692L11.9973 15.3893L17.5028 12.135L11.9973 3Z" fill="white"/>
<path d="M11.9977 3L6.49219 12.135L11.9977 15.3893V9.63258V3Z" fill="#ECECEC"/>
<path d="M11.9993 16.4314L11.9316 16.514V20.7389L11.9993 20.9369L17.5082 13.1787L11.9993 16.4314Z" fill="white"/>
<path d="M11.9977 20.9369V16.4314L6.49219 13.1787L11.9977 20.9369Z" fill="#ECECEC"/>
<path d="M11.998 15.3895L17.5035 12.1352L11.998 9.63281V15.3895Z" fill="#F8F8F8"/>
<path d="M6.49219 12.1347L11.9976 15.389V9.63232L6.49219 12.1347Z" fill="#D9D9D9"/>
</g>
<defs>
<clipPath id="clip0_1726_607">
<rect width="24" height="24" fill="white"/>
</clipPath>
</defs>
</svg>
