<svg width="30" height="30" viewBox="0 0 30 30" fill="none" xmlns="http://www.w3.org/2000/svg">
<g>
<path d="M16.892 18.2928V7.8117C16.892 7.56895 16.6953 7.37225 16.4526 7.37225C16.2099 7.37225 16.0131 7.56895 16.0131 7.8117V18.528C16.0131 18.6778 16.0895 18.8173 16.2157 18.8981C17.8195 19.9245 18.777 21.6725 18.777 23.5739C18.777 25.0702 18.1902 26.4731 17.1246 27.5238C16.0783 28.5556 14.698 29.1211 13.2304 29.1211C13.2037 29.1211 13.1771 29.1209 13.1504 29.1205C11.7079 29.1003 10.3463 28.5229 9.31616 27.4947C8.28602 26.4664 7.70624 25.1057 7.68356 23.6634C7.65303 21.7252 8.61028 19.9437 10.2442 18.8981C10.3704 18.8173 10.4468 18.6778 10.4468 18.528V3.6621C10.4468 2.12748 11.6954 0.878904 13.23 0.878904C14.7646 0.878904 16.0132 2.12748 16.0132 3.6621V5.73854C16.0132 5.9813 16.2099 6.178 16.4526 6.178C16.6953 6.178 16.8921 5.9813 16.8921 5.73854V3.6621C16.8921 1.64279 15.2492 0 13.23 0C11.2107 0 9.56787 1.64279 9.56787 3.6621V18.2928C7.79934 19.5186 6.77073 21.5136 6.80477 23.6773C6.83108 25.3494 7.50245 26.9261 8.6953 28.1167C9.88803 29.3073 11.4659 29.9759 13.1382 29.9994C13.1691 29.9998 13.2 30.0001 13.2308 30.0001C14.9309 30.0001 16.5297 29.345 17.7419 28.1497C18.9763 26.9324 19.6561 25.3074 19.6561 23.574C19.6559 21.4527 18.6272 19.4963 16.892 18.2928V18.2928Z" fill="white"/>
<path d="M13.175 27.3629C12.8405 27.3582 12.5083 27.3084 12.1874 27.2147C11.9544 27.1467 11.7104 27.2805 11.6425 27.5135C11.5744 27.7464 11.7081 27.9904 11.9411 28.0584C12.338 28.1743 12.7491 28.236 13.163 28.2418C13.1846 28.2421 13.206 28.2422 13.2277 28.2422C14.4645 28.2422 15.6271 27.7663 16.5076 26.8982C17.4044 26.0139 17.8982 24.8334 17.8982 23.5741C17.8982 21.9738 17.0921 20.5026 15.742 19.6385C15.3615 19.395 15.1343 18.9799 15.1343 18.5281V16.2598C15.1343 16.017 14.9375 15.8203 14.6948 15.8203H11.7652C11.5225 15.8203 11.3257 16.017 11.3257 16.2598V18.528C11.3257 18.9797 11.0985 19.3949 10.718 19.6384C9.34254 20.5187 8.5367 22.0182 8.56236 23.6497C8.5817 24.8778 9.08396 26.0343 9.97676 26.9063C10.1503 27.0758 10.4285 27.0727 10.5982 26.8989C10.7678 26.7253 10.7645 26.4471 10.5909 26.2775C9.86514 25.5687 9.45685 24.6306 9.44115 23.6358C9.42035 22.3112 10.0747 21.0936 11.1918 20.3787C11.826 19.9728 12.2046 19.281 12.2046 18.528V16.6992H14.2554V18.528C14.2554 19.281 14.634 19.9728 15.2682 20.3787C16.3647 21.0804 17.0193 22.2749 17.0193 23.574C17.0193 24.5961 16.6184 25.5544 15.8904 26.2723C15.1633 26.9893 14.2003 27.3747 13.175 27.3629V27.3629Z" fill="white"/>
<path d="M14.6948 3.6947H12.0645C11.8218 3.6947 11.625 3.8914 11.625 4.13416C11.625 4.37691 11.8218 4.57361 12.0645 4.57361H14.6949C14.9376 4.57361 15.1344 4.37691 15.1344 4.13416C15.1344 3.8914 14.9375 3.6947 14.6948 3.6947Z" fill="white"/>
<path d="M14.6948 5.41626H13.5293C13.2866 5.41626 13.0898 5.61296 13.0898 5.85571C13.0898 6.09847 13.2866 6.29517 13.5293 6.29517H14.6949C14.9376 6.29517 15.1344 6.09847 15.1344 5.85571C15.1344 5.61296 14.9375 5.41626 14.6948 5.41626Z" fill="white"/>
<path d="M12.0645 8.01672H14.6949C14.9376 8.01672 15.1344 7.82003 15.1344 7.57727C15.1344 7.33452 14.9376 7.13782 14.6949 7.13782H12.0645C11.8218 7.13782 11.625 7.33452 11.625 7.57727C11.625 7.82003 11.8217 8.01672 12.0645 8.01672Z" fill="white"/>
<path d="M14.6948 8.8595H13.5293C13.2866 8.8595 13.0898 9.0562 13.0898 9.29895C13.0898 9.5417 13.2866 9.7384 13.5293 9.7384H14.6949C14.9376 9.7384 15.1344 9.5417 15.1344 9.29895C15.1344 9.0562 14.9375 8.8595 14.6948 8.8595Z" fill="white"/>
<path d="M12.0645 11.46H14.6949C14.9376 11.46 15.1344 11.2633 15.1344 11.0205C15.1344 10.7778 14.9376 10.5811 14.6949 10.5811H12.0645C11.8218 10.5811 11.625 10.7778 11.625 11.0205C11.625 11.2633 11.8217 11.46 12.0645 11.46Z" fill="white"/>
<path d="M14.6948 12.3026H13.5293C13.2866 12.3026 13.0898 12.4993 13.0898 12.7421C13.0898 12.9848 13.2866 13.1815 13.5293 13.1815H14.6949C14.9376 13.1815 15.1344 12.9848 15.1344 12.7421C15.1344 12.4993 14.9375 12.3026 14.6948 12.3026Z" fill="white"/>
<path d="M12.0645 14.9032H14.6949C14.9376 14.9032 15.1344 14.7065 15.1344 14.4637C15.1344 14.221 14.9376 14.0243 14.6949 14.0243H12.0645C11.8218 14.0243 11.625 14.221 11.625 14.4637C11.625 14.7065 11.8217 14.9032 12.0645 14.9032Z" fill="white"/>
<path d="M22.7565 9.97447C22.9992 9.97447 23.1959 9.77777 23.1959 9.53502V8.74494C23.1959 8.13117 22.6966 7.63184 22.0828 7.63184H20.006C19.3922 7.63184 18.8928 8.13117 18.8928 8.74494V16.3478C18.8928 16.9616 19.3922 17.4609 20.006 17.4609H22.0828C22.6966 17.4609 23.1959 16.9616 23.1959 16.3478V15.5578C23.1959 15.315 22.9992 15.1183 22.7565 15.1183C22.5137 15.1183 22.317 15.315 22.317 15.5578V16.3478C22.317 16.477 22.212 16.582 22.0828 16.582H20.006C19.8768 16.582 19.7717 16.477 19.7717 16.3478V8.74494C19.7717 8.6158 19.8768 8.51074 20.006 8.51074H22.0828C22.212 8.51074 22.317 8.6158 22.317 8.74494V9.53502C22.317 9.77777 22.5137 9.97447 22.7565 9.97447V9.97447Z" fill="white"/>
<path d="M19.3318 6.92938C19.5698 6.92938 19.7629 6.73619 19.7629 6.49789C19.7629 6.25959 19.5699 6.06641 19.3318 6.06641C19.0936 6.06641 18.9006 6.25959 18.9006 6.49789C18.9006 6.73619 19.0936 6.92938 19.3318 6.92938Z" fill="white"/>
</g>
</svg>
