<svg width="30" height="30" viewBox="0 0 30 30" fill="none" xmlns="http://www.w3.org/2000/svg">
<path d="M28.1454 28.9888H27.3028V2.52809C27.3028 2.24877 27.0763 2.02248 26.7971 2.02248H17.3589C17.0797 2.02248 16.8533 2.24877 16.8533 2.52809V4.71908H15.8421V2.52809C15.8421 2.24877 15.6157 2.02248 15.3365 2.02248H13.1454V0.505605C13.1454 0.226289 12.919 0 12.6398 0C12.3606 0 12.1342 0.226289 12.1342 0.505605V2.02248H9.94324C9.66398 2.02248 9.43764 2.24877 9.43764 2.52809V4.71908H7.92076C7.6415 4.71908 7.41516 4.94537 7.41516 5.22469V9.43816H3.20168C2.92242 9.43816 2.69607 9.66445 2.69607 9.94377V28.9887H1.85326C1.574 28.9887 1.34766 29.215 1.34766 29.4943C1.34766 29.7737 1.57406 30 1.85326 30H28.1454C28.4247 30 28.6511 29.7737 28.6511 29.4944C28.6511 29.2151 28.4246 28.9888 28.1454 28.9888ZM10.4488 3.03369H14.8308V4.71908H10.4488V3.03369ZM8.7634 28.9888H8.42631V28.1461C8.42631 27.8668 8.1999 27.6405 7.9207 27.6405C7.6415 27.6405 7.4151 27.8668 7.4151 28.1461V28.9888H7.07801V27.3034H8.7634V28.9888ZM12.1342 16.0112V16.881V28.9888H9.77461V26.7978C9.77461 26.5185 9.5482 26.2922 9.269 26.2922H6.5724C6.29314 26.2922 6.0668 26.5185 6.0668 26.7978V28.9888H3.70723V10.4494H12.1342V16.0112ZM12.6398 9.43822H8.42631V5.73035H16.8533V15.5056H13.1454V13.8202H14.6623C14.9416 13.8202 15.1679 13.5939 15.1679 13.3146C15.1679 13.0353 14.9415 12.809 14.6623 12.809H13.1454V11.1236H14.6623C14.9416 11.1236 15.1679 10.8973 15.1679 10.618C15.1679 10.3387 14.9415 10.1124 14.6623 10.1124H13.1454V9.94389C13.1454 9.66451 12.919 9.43822 12.6398 9.43822ZM21.5724 28.9888H13.1454V16.881V16.5169H21.5724V28.9888ZM26.2915 28.9888H22.5836V16.0112V15.337C22.5836 15.0577 22.3572 14.8314 22.078 14.8314C21.7988 14.8314 21.5724 15.0577 21.5724 15.337V15.5055H20.5612V15.337C20.5612 15.0577 20.3348 14.8314 20.0556 14.8314C19.7764 14.8314 19.55 15.0577 19.55 15.337V15.5055H17.8646V5.22475V3.03369H26.2915V28.9888H26.2915Z" fill="white"/>
<path d="M15.3357 27.9777C15.6149 27.9777 15.8413 27.7513 15.8413 27.4721V18.0339C15.8413 17.7546 15.6149 17.5283 15.3357 17.5283C15.0565 17.5283 14.8301 17.7546 14.8301 18.0339V27.4721C14.8301 27.7513 15.0564 27.9777 15.3357 27.9777Z" fill="white"/>
<path d="M17.3589 27.9777C17.6381 27.9777 17.8645 27.7513 17.8645 27.4721V18.0339C17.8645 17.7546 17.6381 17.5283 17.3589 17.5283C17.0797 17.5283 16.8533 17.7546 16.8533 18.0339V27.4721C16.8532 27.7513 17.0796 27.9777 17.3589 27.9777Z" fill="white"/>
<path d="M19.3806 27.9777C19.6599 27.9777 19.8862 27.7513 19.8862 27.4721V18.0339C19.8862 17.7546 19.6598 17.5283 19.3806 17.5283C19.1014 17.5283 18.875 17.7546 18.875 18.0339V27.4721C18.875 27.7513 19.1014 27.9777 19.3806 27.9777Z" fill="white"/>
<path d="M20.0564 6.40457C20.3356 6.40457 20.562 6.17828 20.562 5.89897V5.22484C20.562 4.94553 20.3356 4.71924 20.0564 4.71924C19.7772 4.71924 19.5508 4.94553 19.5508 5.22484V5.89902C19.5508 6.17828 19.7771 6.40457 20.0564 6.40457Z" fill="white"/>
<path d="M22.0781 6.40445C22.3574 6.40445 22.5837 6.17816 22.5837 5.89884V5.22472C22.5837 4.94541 22.3573 4.71912 22.0781 4.71912C21.7989 4.71912 21.5725 4.94541 21.5725 5.22472V5.8989C21.5725 6.17816 21.7989 6.40445 22.0781 6.40445Z" fill="white"/>
<path d="M24.1013 6.40457C24.3806 6.40457 24.6069 6.17828 24.6069 5.89897V5.22484C24.6069 4.94553 24.3805 4.71924 24.1013 4.71924C23.8221 4.71924 23.5957 4.94553 23.5957 5.22484V5.89902C23.5957 6.17828 23.8221 6.40457 24.1013 6.40457Z" fill="white"/>
<path d="M20.0564 9.77523C20.3356 9.77523 20.562 9.54895 20.562 9.26963V8.59545C20.562 8.31613 20.3356 8.08984 20.0564 8.08984C19.7772 8.08984 19.5508 8.31613 19.5508 8.59545V9.26963C19.5508 9.54895 19.7771 9.77523 20.0564 9.77523Z" fill="white"/>
<path d="M22.0781 9.77523C22.3574 9.77523 22.5837 9.54895 22.5837 9.26963V8.59545C22.5837 8.31613 22.3573 8.08984 22.0781 8.08984C21.7989 8.08984 21.5725 8.31613 21.5725 8.59545V9.26963C21.5725 9.54895 21.7989 9.77523 22.0781 9.77523Z" fill="white"/>
<path d="M24.1013 9.77523C24.3806 9.77523 24.6069 9.54895 24.6069 9.26963V8.59545C24.6069 8.31613 24.3805 8.08984 24.1013 8.08984C23.8221 8.08984 23.5957 8.31613 23.5957 8.59545V9.26963C23.5957 9.54895 23.8221 9.77523 24.1013 9.77523Z" fill="white"/>
<path d="M20.0564 13.1461C20.3356 13.1461 20.562 12.9198 20.562 12.6405V11.9663C20.562 11.687 20.3356 11.4607 20.0564 11.4607C19.7772 11.4607 19.5508 11.687 19.5508 11.9663V12.6405C19.5508 12.9197 19.7771 13.1461 20.0564 13.1461Z" fill="white"/>
<path d="M22.0781 13.1461C22.3574 13.1461 22.5837 12.9198 22.5837 12.6405V11.9663C22.5837 11.687 22.3573 11.4607 22.0781 11.4607C21.7989 11.4607 21.5725 11.687 21.5725 11.9663V12.6405C21.5725 12.9197 21.7989 13.1461 22.0781 13.1461Z" fill="white"/>
<path d="M24.1013 13.1461C24.3806 13.1461 24.6069 12.9198 24.6069 12.6405V11.9663C24.6069 11.687 24.3805 11.4607 24.1013 11.4607C23.8221 11.4607 23.5957 11.687 23.5957 11.9663V12.6405C23.5957 12.9197 23.8221 13.1461 24.1013 13.1461Z" fill="white"/>
<path d="M5.89818 14.4944C6.17744 14.4944 6.40379 14.2681 6.40379 13.9887V13.3146C6.40379 13.0352 6.17738 12.809 5.89818 12.809C5.61898 12.809 5.39258 13.0352 5.39258 13.3146V13.9887C5.39258 14.268 5.61898 14.4944 5.89818 14.4944Z" fill="white"/>
<path d="M7.92162 14.4945C8.20088 14.4945 8.42723 14.2682 8.42723 13.9889V13.3147C8.42723 13.0354 8.20082 12.8091 7.92162 12.8091C7.64242 12.8091 7.41602 13.0354 7.41602 13.3147V13.9889C7.41602 14.2681 7.64236 14.4945 7.92162 14.4945Z" fill="white"/>
<path d="M9.94311 14.4944C10.2224 14.4944 10.4487 14.2681 10.4487 13.9887V13.3146C10.4487 13.0352 10.2223 12.809 9.94311 12.809C9.66391 12.809 9.4375 13.0352 9.4375 13.3146V13.9887C9.4375 14.268 9.66385 14.4944 9.94311 14.4944Z" fill="white"/>
<path d="M5.89818 17.8652C6.17744 17.8652 6.40379 17.6389 6.40379 17.3596V16.6854C6.40379 16.4061 6.17738 16.1798 5.89818 16.1798C5.61898 16.1798 5.39258 16.4061 5.39258 16.6854V17.3596C5.39258 17.6389 5.61898 17.8652 5.89818 17.8652Z" fill="white"/>
<path d="M7.92162 17.8651C8.20088 17.8651 8.42723 17.6388 8.42723 17.3595V16.6853C8.42723 16.406 8.20082 16.1797 7.92162 16.1797C7.64242 16.1797 7.41602 16.406 7.41602 16.6853V17.3595C7.41602 17.6387 7.64236 17.8651 7.92162 17.8651Z" fill="white"/>
<path d="M9.94311 17.8652C10.2224 17.8652 10.4487 17.6389 10.4487 17.3596V16.6854C10.4487 16.4061 10.2223 16.1798 9.94311 16.1798C9.66391 16.1798 9.4375 16.4061 9.4375 16.6854V17.3596C9.4375 17.6389 9.66385 17.8652 9.94311 17.8652Z" fill="white"/>
<path d="M5.89818 21.2359C6.17744 21.2359 6.40379 21.0096 6.40379 20.7303V20.0561C6.40379 19.7768 6.17738 19.5505 5.89818 19.5505C5.61898 19.5505 5.39258 19.7768 5.39258 20.0561V20.7303C5.39258 21.0096 5.61898 21.2359 5.89818 21.2359Z" fill="white"/>
<path d="M7.92162 21.2359C8.20088 21.2359 8.42723 21.0096 8.42723 20.7303V20.0561C8.42723 19.7768 8.20082 19.5505 7.92162 19.5505C7.64242 19.5505 7.41602 19.7768 7.41602 20.0561V20.7303C7.41602 21.0096 7.64236 21.2359 7.92162 21.2359Z" fill="white"/>
<path d="M9.94311 21.2359C10.2224 21.2359 10.4487 21.0096 10.4487 20.7303V20.0561C10.4487 19.7768 10.2223 19.5505 9.94311 19.5505C9.66391 19.5505 9.4375 19.7768 9.4375 20.0561V20.7303C9.4375 21.0096 9.66385 21.2359 9.94311 21.2359Z" fill="white"/>
<path d="M5.89818 24.6068C6.17744 24.6068 6.40379 24.3805 6.40379 24.1012V23.427C6.40379 23.1477 6.17738 22.9214 5.89818 22.9214C5.61898 22.9214 5.39258 23.1477 5.39258 23.427V24.1012C5.39258 24.3805 5.61898 24.6068 5.89818 24.6068Z" fill="white"/>
<path d="M7.92162 24.6068C8.20088 24.6068 8.42723 24.3805 8.42723 24.1012V23.427C8.42723 23.1477 8.20082 22.9214 7.92162 22.9214C7.64242 22.9214 7.41602 23.1477 7.41602 23.427V24.1012C7.41602 24.3805 7.64236 24.6068 7.92162 24.6068Z" fill="white"/>
<path d="M9.94311 24.6068C10.2224 24.6068 10.4487 24.3805 10.4487 24.1012V23.427C10.4487 23.1477 10.2223 22.9214 9.94311 22.9214C9.66391 22.9214 9.4375 23.1477 9.4375 23.427V24.1012C9.4375 24.3805 9.66385 24.6068 9.94311 24.6068Z" fill="white"/>
<path d="M24.1013 16.5169C24.3806 16.5169 24.6069 16.2906 24.6069 16.0113V15.3371C24.6069 15.0578 24.3805 14.8315 24.1013 14.8315C23.8221 14.8315 23.5957 15.0578 23.5957 15.3371V16.0113C23.5957 16.2906 23.8221 16.5169 24.1013 16.5169Z" fill="white"/>
<path d="M24.1013 19.8875C24.3806 19.8875 24.6069 19.6612 24.6069 19.3819V18.7078C24.6069 18.4284 24.3805 18.2021 24.1013 18.2021C23.8221 18.2021 23.5957 18.4284 23.5957 18.7078V19.3819C23.5957 19.6612 23.8221 19.8875 24.1013 19.8875Z" fill="white"/>
<path d="M24.1013 23.2584C24.3806 23.2584 24.6069 23.0321 24.6069 22.7528V22.0786C24.6069 21.7993 24.3805 21.573 24.1013 21.573C23.8221 21.573 23.5957 21.7993 23.5957 22.0786V22.7528C23.5957 23.032 23.8221 23.2584 24.1013 23.2584Z" fill="white"/>
<path d="M24.1013 26.6292C24.3806 26.6292 24.6069 26.4029 24.6069 26.1236V25.4495C24.6069 25.1701 24.3805 24.9438 24.1013 24.9438C23.8221 24.9438 23.5957 25.1701 23.5957 25.4495V26.1236C23.5957 26.4029 23.8221 26.6292 24.1013 26.6292Z" fill="white"/>
<path d="M15.1675 7.92138C15.1675 7.64206 14.9411 7.41577 14.6619 7.41577H10.6169C10.3377 7.41577 10.1113 7.64206 10.1113 7.92138C10.1113 8.20069 10.3377 8.42698 10.6169 8.42698H14.6619C14.9412 8.42698 15.1675 8.20069 15.1675 7.92138Z" fill="white"/>
</svg>
