<svg width="334" height="740" viewBox="0 0 334 740" fill="none" xmlns="http://www.w3.org/2000/svg">
<path d="M302 6C302 6 328 57.6388 328 97C328 136.361 302 148.639 302 188C302 227.361 328 239.639 328 279C328 318.361 302 330.639 302 370C302 409.361 328 421.639 328 461C328 500.361 302 512.639 302 552C302 591.361 328 603.639 328 643C328 682.361 302 734 302 734" stroke="#2C80FF" stroke-width="11" stroke-linecap="round"/>
<path d="M228 6C228 6 254 57.6388 254 97C254 136.361 228 148.639 228 188C228 227.361 254 239.639 254 279C254 318.361 228 330.639 228 370C228 409.361 254 421.639 254 461C254 500.361 228 512.639 228 552C228 591.361 254 603.639 254 643C254 682.361 228 734 228 734" stroke="#2C80FF" stroke-width="11" stroke-linecap="round"/>
<path d="M154 6C154 6 180 57.6388 180 97C180 136.361 154 148.639 154 188C154 227.361 180 239.639 180 279C180 318.361 154 330.639 154 370C154 409.361 180 421.639 180 461C180 500.361 154 512.639 154 552C154 591.361 180 603.639 180 643C180 682.361 154 734 154 734" stroke="#2C80FF" stroke-width="11" stroke-linecap="round"/>
<path d="M80 6C80 6 106 57.6388 106 97C106 136.361 80 148.639 80 188C80 227.361 106 239.639 106 279C106 318.361 80 330.639 80 370C80 409.361 106 421.639 106 461C106 500.361 80 512.639 80 552C80 591.361 106 603.639 106 643C106 682.361 80 734 80 734" stroke="#2C80FF" stroke-width="11" stroke-linecap="round"/>
<path d="M6 6C6 6 32 57.6388 32 97C32 136.361 5.99999 148.639 5.99999 188C5.99999 227.361 32 239.639 32 279C32 318.361 5.99998 330.639 5.99998 370C5.99998 409.361 32 421.639 32 461C32 500.361 5.99998 512.639 5.99997 552C5.99997 591.361 32 603.639 32 643C32 682.361 5.99997 734 5.99997 734" stroke="#2C80FF" stroke-width="11" stroke-linecap="round"/>
</svg>
